<?xml version="1.0" encoding="UTF-8"?>
<svg width="12px" height="26px" viewBox="0 0 12 26" version="1.1" xmlns="http://www.w3.org/2000/svg" xmlns:xlink="http://www.w3.org/1999/xlink">
    <!-- Generator: Sketch 43.2 (39069) - http://www.bohemiancoding.com/sketch -->
    <title>1493108214_call</title>
    <desc>Created with Sketch.</desc>
    <defs></defs>
    <g id="Page-1" stroke="none" stroke-width="1" fill="none" fill-rule="evenodd">
        <g id="landau-web" transform="translate(-890.000000, -994.000000)" fill-rule="nonzero" fill="#636363">
            <g id="1493108214_call" transform="translate(895.819598, 1006.855510) rotate(32.000000) translate(-895.819598, -1006.855510) translate(885.819598, 996.855510)">
                <path d="M4.65275926,8.28277164 C6.13053704,11.2383272 8.66387037,13.666105 11.6194259,15.2494383 L13.9416482,12.9272161 C14.2583148,12.6105494 14.680537,12.5049939 14.9972037,12.716105 C16.1583148,13.1383272 17.4249815,13.3494383 18.7972037,13.3494383 C19.430537,13.3494383 19.8527593,13.7716605 19.8527593,14.4049939 L19.8527593,17.9938827 C19.8527593,18.6272161 19.430537,19.0494383 18.7972037,19.0494383 C8.87498148,19.0494383 0.852759262,11.0272161 0.852759262,1.10499386 C0.852759262,0.471660525 1.27498148,0.0494383027 1.90831482,0.0494383027 L5.60275926,0.0494383027 C6.23609259,0.0494383027 6.65831482,0.471660525 6.65831482,1.10499386 C6.65831482,2.37166052 6.86942593,3.63832719 7.29164815,4.90499386 C7.39720371,5.22166052 7.29164815,5.64388275 7.08053704,5.96054941 L4.65275926,8.28277164 L4.65275926,8.28277164 Z" id="Shape"></path>
            </g>
        </g>
    </g>
</svg>