<?xml version="1.0" encoding="UTF-8"?>
<svg width="58px" height="56px" viewBox="0 0 58 56" version="1.1" xmlns="http://www.w3.org/2000/svg" xmlns:xlink="http://www.w3.org/1999/xlink">
    <!-- Generator: Sketch 42 (36781) - http://www.bohemiancoding.com/sketch -->
    <title>Combined Shape</title>
    <desc>Created with Sketch.</desc>
    <defs></defs>
    <g id="Page-1" stroke="none" stroke-width="1" fill="none" fill-rule="evenodd">
        <g id="landau-web" transform="translate(-928.000000, -937.000000)" fill="#636363">
            <g id="Page-1" transform="translate(928.000000, 937.000000)">
                <path d="M41.303601,55.9412649 L53.3413679,55.9412649 C55.914288,55.9412649 58,53.9293805 58,51.447977 L58,4.49328784 C58,2.01168584 55.914288,0 53.3413679,0 L4.65842622,0 C2.08571195,0 0,2.01168584 0,4.49328784 L0,51.447977 C0,53.9293805 2.08571195,55.9412649 4.65842622,55.9412649 L31.3519577,55.9412649 L31.3519577,33.8305881 L26.6196372,33.8305881 L26.6196372,25.6744557 L31.3519577,25.6744557 L31.3519577,20.3965846 C31.3519577,16.6223658 33.2106352,10.7119839 41.3919036,10.7119839 L48.7628052,10.7419617 L48.7628052,18.6586691 L43.4146305,18.6586691 C42.5371618,18.6586691 41.303601,19.0819311 41.303601,20.8821845 L41.303601,25.6819998 L48.8848645,25.6819998 L48.015835,33.8305881 L41.303601,33.8305881 L41.303601,55.9412649 Z" id="Combined-Shape"></path>
            </g>
        </g>
    </g>
</svg>