<?xml version="1.0" encoding="UTF-8"?>
<svg width="259px" height="29px" viewBox="0 0 259 29" version="1.1" xmlns="http://www.w3.org/2000/svg" xmlns:xlink="http://www.w3.org/1999/xlink">
    <!-- Generator: Sketch 50.2 (55047) - http://www.bohemiancoding.com/sketch -->
    <title>Group@2x</title>
    <desc>Created with Sketch.</desc>
    <defs>
        <path d="M0.134025221,25.3064272 C0.486164048,11.4001769 12.1781039,0.216210252 26.5297001,0.216210252 C33.9253911,0.216210252 40.6144776,3.18645528 45.4102361,7.96802816 C46.7451059,9.30611258 48.7749458,9.72870535 50.5550309,9.04076364 C52.6880304,8.2144776 55.0141633,7.7593777 57.447334,7.7593777 C67.5275018,7.7593777 75.7523479,15.5641142 76.1006085,25.3064272 C50.3494873,17.9741781 33.5042207,29.9549476 0.134025221,25.3064272 L0.134025221,25.3064272 Z" id="path-1"></path>
        <linearGradient x1="33.233621%" y1="22.6809114%" x2="293.571008%" y2="265.685996%" id="linearGradient-3">
            <stop stop-color="#90522C" offset="0%"></stop>
            <stop stop-color="#000000" offset="100%"></stop>
        </linearGradient>
    </defs>
    <g id="Symbols" stroke="none" stroke-width="1" fill="none" fill-rule="evenodd">
        <g id="header-desktop" transform="translate(-269.000000, -24.000000)">
            <g id="Group">
                <g transform="translate(269.000000, 24.000000)">
                    <g id="logo">
                        <path d="M3.16861827,27.6117975 C3.52173704,13.7041635 15.2462136,2.51908397 29.637748,2.51908397 C37.05402,2.51908397 43.7617211,5.48962456 48.5708255,10.2716732 C49.90941,11.6098908 51.9448986,12.0325256 53.7299374,11.3445154 C55.8688727,10.5181472 58.2014788,10.063002 60.6414206,10.063002 C70.7496399,10.063002 78.9973744,17.8685151 79.3466042,27.6117975 C53.5238218,20.2788189 36.6316776,32.2607805 3.16861827,27.6117975 L3.16861827,27.6117975 Z" id="Shape" fill="#CCDF39"></path>
                        <g id="Clipped" transform="translate(3.168618, 2.519084)">
                            <mask id="mask-2" fill="white">
                                <use xlink:href="#path-1"></use>
                            </mask>
                            <g id="Shape"></g>
                            <path d="M9.35401252,28.3832654 L9.35401252,28.3379066 C9.35401252,19.8293528 16.4410003,12.9219644 25.1707855,12.9219644 C33.8997951,12.9219644 40.9875586,19.8293528 40.9875586,28.3379066 L40.9867829,28.3832654 L9.35401252,28.3832654 Z" id="Shape" fill="url(#linearGradient-3)" mask="url(#mask-2)"></path>
                        </g>
                        <path d="M0.662763466,27.4181853 C0.689890446,26.225622 0.792197915,25.2738795 0.970460928,24.0943959 C1.20607813,22.5302144 1.57500506,20.9860372 2.07181633,19.4834074 C2.44306843,18.3616285 2.88562573,17.2629314 3.39561296,16.196549 C4.15826864,14.6000529 5.0728354,13.07588 6.12148695,11.6494204 C7.02985326,10.4137709 8.03820187,9.25198334 9.13335681,8.17713754 C10.5145076,6.82223171 12.0343936,5.60735589 13.6620124,4.55713075 C14.9400807,3.73233856 16.2848039,3.0091066 17.6791307,2.39820641 C19.8508392,1.44646392 22.1434565,0.766318121 24.4856775,0.381620269 C25.4637989,0.221585963 26.4496709,0.110792981 27.4394181,0.0515495122 C27.8339219,0.0276982453 28.2299759,0.0123103313 28.6260298,0.00461637422 C28.7787159,0.00230818711 28.9314021,0.000769395704 29.0848633,0 L29.2701018,0 C29.6119017,0.00153879141 29.9521516,0.00846335274 30.2931765,0.020773684 C30.7853374,0.0400085766 31.2767233,0.0715538005 31.766559,0.115409356 C33.0926808,0.233896294 34.410277,0.445480112 35.7061716,0.747083228 C37.5508063,1.17640603 39.3512627,1.7903838 41.0726634,2.57593682 C42.3181793,3.14528964 43.5226172,3.80389236 44.6728012,4.54482042 C45.9136668,5.34345316 47.0909777,6.23826037 48.1923331,7.2169317 C48.4946052,7.4854508 48.7906768,7.76012507 49.0805479,8.0409545 C49.1844055,8.14097594 49.286713,8.24176678 49.3890205,8.34409641 C49.4626508,8.417189 49.5355061,8.49182038 49.6099116,8.56568237 C49.6269628,8.58260908 49.6447891,8.59953578 49.6626154,8.61569309 C49.7222948,8.67108958 49.7835243,8.72340849 49.8478539,8.77341921 C49.9548118,8.85497515 50.06797,8.92883714 50.1865537,8.99346638 C50.3733423,9.09502661 50.5733069,9.17427437 50.779472,9.22813207 C51.1073209,9.3127656 51.4522211,9.33430868 51.7878206,9.28814494 C51.9474822,9.26660186 52.1048187,9.23044026 52.2582799,9.17966014 C52.3233847,9.15811706 52.3869393,9.1334964 52.4504939,9.10887574 C52.506298,9.08656326 52.561327,9.06502018 52.6171311,9.0442465 C52.6923116,9.01577886 52.7674921,8.98731122 52.8418975,8.95961297 C53.313907,8.78649894 53.7913418,8.63031161 54.273427,8.49105099 C55.0159312,8.27715898 55.7700613,8.10558374 56.5319419,7.97555587 C58.2246655,7.68626308 59.9545917,7.60778472 61.6674668,7.7370432 C63.0726444,7.84245041 64.4661961,8.09173462 65.8202199,8.47720186 C67.1626179,8.86036092 68.465488,9.37970302 69.7024783,10.0236872 C71.2905693,10.8500182 72.7701523,11.8810085 74.0931738,13.0820352 C75.5371042,14.392316 76.794246,15.9041786 77.8149955,17.5606875 C78.4730186,18.6286088 79.0326094,19.7550041 79.4852425,20.9237162 C79.8223921,21.7931333 80.0983122,22.6864017 80.3130029,23.5935193 C80.6276759,24.9261126 80.8067139,26.8465243 80.8501171,28.2137405 L76.7066646,27.1527438 L76.57413,27.1281231 C76.5640542,26.8734531 76.5454529,27.1488968 76.5237513,26.8949962 C76.4555463,26.1102126 76.3315372,25.3300454 76.150174,24.5629578 C75.9688108,23.7951009 75.7308684,23.0403237 75.4394471,22.3063202 C75.0170413,21.2437848 74.4814772,20.2274131 73.8467059,19.2749012 C73.4258501,18.6447661 72.9608162,18.0446374 72.4578045,17.4775928 C71.1332328,15.9857345 69.534291,14.7339277 67.7625117,13.8060365 C66.8277935,13.3167008 65.8457968,12.9158457 64.834348,12.6134732 C63.8321998,12.3141782 62.8021496,12.1110578 61.7604736,12.0056506 C59.8918122,11.8171486 57.9890483,11.9425601 56.16379,12.3826545 C55.6654286,12.5026802 55.1732677,12.6457878 54.6880823,12.8119773 C54.5229952,12.8681431 54.3586832,12.9273866 54.1951463,12.9897077 C54.0998143,13.0250999 54.0060325,13.0628003 53.9114756,13.0989619 L53.8510212,13.1220437 C53.6898094,13.1812872 53.5262725,13.2359143 53.3611854,13.2836168 C52.9744322,13.3959486 52.5776032,13.474427 52.176899,13.5167437 C51.533602,13.5859893 50.8810044,13.5644463 50.2439079,13.4528839 C49.4843524,13.3197784 48.7480487,13.0589533 48.0752996,12.685027 C47.6683948,12.4580552 47.2855169,12.1903055 46.9328662,11.8871636 C46.8197079,11.7894504 46.7096499,11.6878901 46.6026921,11.5832523 C46.5205361,11.5024658 46.4399302,11.419371 46.3585492,11.3378151 C46.3066204,11.2862656 46.2539166,11.2347161 46.2019878,11.1831666 C45.9206423,10.9084923 45.6338713,10.6399732 45.3401249,10.379148 C44.5875449,9.70977378 43.7923369,9.08656326 42.9614762,8.51567165 C41.8825975,7.7732048 40.7432643,7.11691026 39.5566527,6.55832898 C38.2429318,5.93896544 36.8726318,5.43731944 35.4682292,5.06339313 C34.1304816,4.70716292 32.7617317,4.46634206 31.382906,4.34246935 C30.9659256,4.30553836 30.5481701,4.27860951 30.1296395,4.2624522 C29.8382183,4.25168066 29.547572,4.24552549 29.2569258,4.2447561 C29.204222,4.2439867 29.1515181,4.2439867 29.0988143,4.2447561 C28.6306801,4.24629489 28.163321,4.26014401 27.6959619,4.28861165 C26.8542504,4.33862237 26.0156392,4.43248865 25.1832284,4.56944108 C23.1952083,4.89566486 21.2498163,5.47348104 19.4059567,6.28134653 C17.6644046,7.04458706 16.0150842,8.01248686 14.5013987,9.15811706 C13.0334415,10.2683551 11.6949188,11.5440131 10.5152827,12.9527767 C9.41082707,14.2722903 8.4482068,15.7102909 7.65067358,17.2321556 C6.91204466,18.6432273 6.31447604,20.1266222 5.87114367,21.6554115 C5.55182036,22.7587249 5.31232788,23.8843508 5.15576645,25.0222871 C5.03563268,25.8955512 4.96277736,27.1242761 4.93952567,28.0060036 L0.662763466,27.4181853 L0.662763466,27.4181853 Z" id="Shape" fill="#65993A"></path>
                    </g>
                    <path d="M246.864703,21.3763768 C247.110814,21.9935768 247.494747,22.6170572 248.43518,23.4015463 C249.236633,23.9645058 249.902581,24.3904365 251.424415,24.5240395 C252.099628,24.541739 252.466188,24.5149042 253.205679,24.3304865 C253.893632,24.130653 254.386433,23.8617343 254.806848,23.5899607 C255.157194,23.3638634 255.84978,23.1497562 256.571319,23.5899607 C256.980153,23.8840014 257.569082,24.4960628 257.216419,25.5123587 C256.965676,26.150113 256.36806,26.4384442 256.126582,26.6051624 C255.515069,26.9323183 254.825958,27.3907934 253.997867,27.6043297 C253.169197,27.8178661 252.367165,28 251.424415,28 C250.12437,28 247.706113,27.8178661 245.053326,25.3993101 C243.398302,23.7760914 242.631594,21.12059 242.631594,20.0900202 L242.631594,18.5872725 C242.631594,17.481337 242.841802,16.4387772 243.262217,15.4584513 C243.682633,14.4786963 244.262876,13.62398 245.001788,12.8954443 C245.7407,12.1663376 246.620329,11.5885334 247.639518,11.1614607 C248.659286,10.734388 249.731172,10.5642441 250.954777,10.5642441 C252.407701,10.5642441 253.583822,11.0101582 254.598378,11.4851909 C255.71659,12.0081837 257.527967,13.5023671 258.352004,15.4961342 C258.728988,16.4068039 258.979153,17.0651124 259,18.387439 C259,19.5681694 258.87955,20.1825146 258.420336,20.660402 C257.961701,21.1377186 257.19731,21.3763768 256.126582,21.3763768 L246.864703,21.3763768 L246.864703,21.3763768 Z M235.110443,25.629975 L235.110443,6.35917688 C235.087859,5.84589033 235.243054,5.14476032 235.741646,4.67201142 C236.140056,4.26263828 236.716245,4 237.404197,4 C238.067249,4 238.624908,4.32087546 238.990889,4.71369097 C239.384088,5.13562507 239.583293,5.6454859 239.583293,6.35917688 L239.583293,25.7761389 C239.583293,26.2283335 239.322126,26.8900678 238.990889,27.189818 C238.924874,27.2491971 238.855384,27.3085762 238.782419,27.3656715 C238.641122,27.4832877 238.48419,27.5837754 238.315677,27.6642798 C238.046981,27.7984537 237.743541,27.8869514 237.404197,27.8869514 C237.336445,27.8869514 237.26985,27.8840966 237.204413,27.878958 C236.204913,27.8178661 235.382613,27.1076008 235.166035,26.1718092 C235.130132,26.0353515 235.110443,25.9017485 235.110443,25.7761389 L235.110443,25.7310337 C235.110443,25.7139051 235.109864,25.6973474 235.109864,25.6802189 C235.109864,25.6636612 235.110443,25.6465327 235.110443,25.629975 L235.110443,25.629975 Z M198.577153,27.8869514 L198.386055,27.8869514 C197.800022,27.8869514 197.315907,27.7487808 196.933711,27.4724396 C196.551515,27.1960985 196.308879,26.8569525 196.20696,26.4544308 C196.20696,26.4544308 196.19422,26.4293089 196.16874,26.3790651 L196.16874,18.5872725 C196.16874,17.1273463 195.976484,16.3531343 195.1565,15.5338171 C194.600579,14.97828 193.872091,14.5963126 192.843057,14.5540621 C191.395346,14.6145831 190.804679,15.1529916 190.299718,15.6657071 C189.55154,16.4427739 189.402136,17.2049958 189.402136,18.5872725 L189.402136,26.1152849 C189.402136,26.5674795 189.204669,26.9762817 188.809733,27.3405495 C188.414797,27.7048174 187.885514,27.8869514 187.223041,27.8869514 C186.535089,27.8869514 185.980905,27.7048174 185.55991,27.3405495 C185.139495,26.9762817 184.929287,26.5674795 184.929287,26.1152849 L184.929287,18.738004 C184.929287,17.5567027 185.043946,16.4576187 185.273263,15.4396098 C185.502581,14.422172 185.904465,13.5423338 186.477759,12.8012371 C187.051053,12.0595694 187.821815,11.4817652 188.790623,11.0672535 C189.758853,10.6527418 190.982458,10.4454859 192.460861,10.4454859 C193.938685,10.4454859 195.155921,10.7155466 196.111411,11.2556679 C197.06748,11.7957892 197.825501,12.5060545 198.386055,13.3853218 C198.972668,12.5060545 199.73706,11.7957892 200.679809,11.2556679 C201.623138,10.7155466 202.858905,10.4454859 204.388267,10.4454859 C205.86667,10.4454859 207.089697,10.6527418 208.058506,11.0672535 C209.026735,11.4817652 209.791706,12.0595694 210.35226,12.8012371 C210.912814,13.5423338 211.307749,14.422172 211.537067,15.4396098 C211.766963,16.4576187 211.881622,17.5567027 211.881622,18.738004 L211.881622,26.1152849 C211.881622,26.5674795 211.677784,26.9762817 211.26953,27.3405495 C210.861854,27.7048174 210.3013,27.8869514 209.587868,27.8869514 C208.950296,27.8869514 208.434331,27.7048174 208.039396,27.3405495 C207.64446,26.9762817 207.446992,26.5674795 207.446992,26.1152849 L207.446992,18.5872725 C207.489265,17.0377067 207.129654,16.2292375 206.434752,15.5338171 C205.709159,14.8549542 204.91176,14.5609135 204.006071,14.5540621 C202.931869,14.5540621 202.095092,15.1193053 201.522957,15.70339 C200.933448,16.3748305 200.631745,17.1107886 200.679809,18.5872725 L200.679809,26.2660164 L200.60337,26.6051624 L200.526931,26.718782 C200.501451,26.7690258 200.482342,26.8129892 200.469602,26.8506721 C200.456862,26.8883549 200.425012,26.9323183 200.374053,26.9825622 C200.195695,27.2337814 199.953637,27.4410372 199.647881,27.6043297 C199.342124,27.7676222 198.985408,27.8618294 198.577153,27.8869514 L198.577153,27.8869514 Z M179.634716,27.8869514 C178.997723,27.8869514 178.481759,27.7048174 178.086244,27.3405495 C177.691308,26.9762817 177.49384,26.5674795 177.49384,26.1152849 L177.49384,25.5123587 C177.460833,25.2297371 177.346174,25.1920542 177.149864,25.3993101 C176.920547,25.7258951 176.672119,26.0273582 176.404582,26.3036993 C176.136466,26.5800404 175.8116,26.8255501 175.429404,27.0390865 C175.047208,27.2526228 174.594943,27.4159153 174.072609,27.528964 C173.549695,27.6420126 172.906332,27.6985369 172.14194,27.6985369 C170.918335,27.6985369 169.848186,27.4787201 168.930337,27.0390865 C168.013067,26.5988819 167.260836,26.0273582 166.674803,25.3239443 C166.088769,24.6205305 165.649244,23.816058 165.355648,22.9116688 C165.062631,22.0067087 164.916123,21.0771976 164.916123,20.1219936 L164.916123,18.9264185 C164.916123,17.8707268 165.107221,16.828167 165.489996,15.7975972 C165.872191,14.7675984 166.432745,13.8375164 167.171657,13.0084929 C167.911148,12.1788985 168.841158,11.5068871 169.962845,10.9918877 C171.083953,10.4768883 172.396738,10.2193886 173.900041,10.2193886 C175.302005,10.2193886 176.512871,10.407803 177.53206,10.7846319 C178.551828,11.1614607 179.386289,11.6827406 180.036022,12.3490425 C180.686334,13.0147734 181.164079,13.7998335 181.469835,14.7047936 C181.775592,15.6091828 181.92847,16.6020697 181.92847,17.6823124 L181.92847,26.1152849 C181.92847,26.5674795 181.724633,26.9762817 181.316957,27.3405495 C180.909282,27.7048174 180.348149,27.8869514 179.634716,27.8869514 L179.634716,27.8869514 Z M141.87782,27.8869514 C141.240827,27.8869514 140.724284,27.7048174 140.329348,27.3405495 C139.934412,26.9762817 139.736945,26.5674795 139.736945,26.1152849 L139.736945,25.5123587 C139.737524,25.1577971 139.469987,25.2708457 139.392968,25.3993101 C139.163651,25.7258951 138.915223,26.0273582 138.647107,26.3036993 C138.37957,26.5800404 138.054704,26.8255501 137.672508,27.0390865 C137.290312,27.2526228 136.838047,27.4159153 136.315134,27.528964 C135.792799,27.6420126 135.149436,27.6985369 134.384465,27.6985369 C133.161439,27.6985369 132.090711,27.4787201 131.173441,27.0390865 C130.256171,26.5988819 129.50394,26.0273582 128.917907,25.3239443 C128.331873,24.6205305 127.891769,23.816058 127.598752,22.9116688 C127.305735,22.0067087 127.159227,21.0771976 127.159227,20.1219936 L127.159227,18.9264185 C127.159227,17.8707268 127.350325,16.828167 127.73252,15.7975972 C128.115295,14.7675984 128.675849,13.8375164 129.414761,13.0084929 C130.154252,12.1788985 131.084262,11.5068871 132.20537,10.9918877 C133.327057,10.4768883 134.639842,10.2193886 136.143145,10.2193886 C137.545109,10.2193886 138.755975,10.407803 139.775164,10.7846319 C140.794353,11.1614607 141.629393,11.6827406 142.279126,12.3490425 C142.928859,13.0147734 143.407183,13.7998335 143.712939,14.7047936 C144.018696,15.6091828 144.171574,16.6020697 144.171574,17.6823124 L144.171574,26.1152849 C144.171574,26.5674795 143.967737,26.9762817 143.560061,27.3405495 C143.152386,27.7048174 142.591253,27.8869514 141.87782,27.8869514 L141.87782,27.8869514 Z M214.744616,19.0394671 C214.744616,17.8581658 214.916605,16.7465208 215.260581,15.70339 C215.604557,14.6608303 216.126891,13.7433091 216.828163,12.9519686 C217.528855,12.1600571 218.427016,11.5382895 219.523223,11.0860949 C220.618851,10.6339003 221.918896,10.407803 223.422779,10.407803 C224.900602,10.407803 226.187908,10.6339003 227.283536,11.0860949 C228.379743,11.5382895 229.284273,12.1600571 229.998284,12.9519686 C230.711717,13.7433091 231.240421,14.6608303 231.584397,15.70339 C231.928952,16.7465208 232.100941,17.8581658 232.100941,19.0394671 L232.100941,19.5190674 C232.100941,20.6501249 231.928952,21.7178066 231.584397,22.7232544 C231.240421,23.7281313 230.711717,24.6079695 229.998284,25.3616272 C229.284273,26.1152849 228.379743,26.7125015 227.283536,27.1521351 C226.187908,27.5917688 224.900602,27.8115856 223.422779,27.8115856 C221.918896,27.8115856 220.618851,27.5917688 219.523223,27.1521351 C218.427016,26.7125015 217.528855,26.1152849 216.828163,25.3616272 C216.126891,24.6079695 215.604557,23.7281313 215.260581,22.7232544 C214.916605,21.7178066 214.744616,20.6501249 214.744616,19.5190674 L214.744616,19.0394671 Z M147.188605,18.43597 C147.188605,17.3054835 147.347854,16.2435114 147.66635,15.2511954 C147.985426,14.2583086 148.48865,13.3853218 149.176603,12.6316641 C149.865134,11.8774355 150.744185,11.2870703 151.814333,10.8599976 C152.885061,10.4329249 154.172366,10.2193886 155.675669,10.2193886 C156.975714,10.2193886 158.096822,10.3889616 159.040151,10.7281075 C159.982901,11.0672535 160.747872,11.5257286 161.333905,12.1035328 C161.665142,12.4306887 161.8435,12.8389199 161.868979,13.3287974 C161.894459,13.8186749 161.78617,14.2520281 161.544113,14.6294279 C161.302056,15.0062567 160.9326,15.2700369 160.435166,15.4207684 C159.938311,15.5714999 159.333168,15.4710123 158.619736,15.1193053 C158.236961,14.91833 157.816545,14.736196 157.35791,14.5729035 C156.899275,14.409611 156.338721,14.3279648 155.675669,14.3279648 C154.350724,14.3279648 153.356436,14.7173546 152.693963,15.4961342 C152.03149,16.2749138 151.699674,17.3306054 151.699674,18.6626383 L151.699674,19.2552873 C151.699674,20.5873201 152.03149,21.6424408 152.693963,22.4212204 C153.356436,23.200571 154.350724,23.5899607 155.675669,23.5899607 C156.338721,23.5899607 156.937495,23.5208755 157.472569,23.3827049 C158.007643,23.2445343 158.428638,23.0875223 158.734394,22.9116688 C159.269469,22.6353277 159.772693,22.5411205 160.244068,22.6290472 C160.716022,22.716974 161.091848,22.9179493 161.372125,23.2319734 C161.652402,23.5459974 161.81802,23.9228262 161.868979,24.3624599 C161.919939,24.8026644 161.7798,25.2485786 161.448564,25.7007732 C160.964449,26.3539431 160.193109,26.8506721 159.1357,27.189818 C158.077712,27.528964 156.924755,27.6985369 155.675669,27.6985369 C154.172366,27.6985369 152.885061,27.4850006 151.814333,27.0579279 C150.744185,26.6302843 149.865134,26.0399191 149.176603,25.2862614 C148.48865,24.5320328 147.985426,23.659046 147.66635,22.6667301 C147.347854,21.6738432 147.188605,20.612442 147.188605,19.4813846 L147.188605,18.43597 Z M116.923906,27.6985369 C115.420023,27.6985369 114.209737,27.4410372 113.292467,26.9260378 C112.374617,26.4104675 111.648445,25.7133341 111.112792,24.8340668 C110.552238,25.7133341 109.806956,26.4104675 108.876367,26.9260378 C107.946357,27.4410372 106.754601,27.6985369 105.302257,27.6985369 C103.900293,27.6985369 102.728226,27.4912811 101.784897,27.0767694 C100.842147,26.6616867 100.089916,26.0838825 99.5293625,25.3427858 C98.9688086,24.6016891 98.5738729,23.7218508 98.3445553,22.704413 C98.1146588,21.6864042 98,20.5873201 98,19.4060188 L98,12.3490425 C98.0011582,11.8751517 98.2542181,11.2088498 98.7348584,10.8011895 C99.1552738,10.4369216 99.5965363,10.2399429 100.285068,10.2399429 C100.947541,10.2399429 101.468138,10.5134293 101.880446,10.9621982 C102.275382,11.327037 102.47285,11.967646 102.47285,12.4198406 L102.47285,19.5567503 C102.47285,20.939027 102.63731,21.701249 103.218711,22.4212204 C103.711512,23.0258594 104.537286,23.5899607 105.684453,23.5899607 C106.927748,23.5448555 107.688665,22.9601998 108.147879,22.3863923 C108.695693,21.6824075 108.857257,20.939027 108.857257,19.5567503 L108.857257,12.3490425 C108.857257,11.7518259 109.321683,10.9975972 109.717777,10.7281075 C110.097078,10.3986678 110.914745,10.2302367 111.144063,10.2399429 C111.636864,10.2604972 112.167884,10.3889616 112.674004,10.8599976 C113.016822,11.133484 113.349217,11.7946473 113.358482,12.3490425 L113.368906,19.5567503 C113.368906,20.939027 113.546685,21.7377899 114.114188,22.4212204 C114.626677,23.0104437 115.394544,23.5899607 116.54171,23.5899607 C117.663397,23.5899607 118.481644,23.054407 119.007453,22.4212204 C119.574955,21.7503509 119.753314,20.939027 119.753314,19.5567503 L119.753314,12.1257999 C119.849442,11.6216486 119.948465,11.3818485 120.353824,10.9056738 C120.74876,10.541406 121.256038,10.2245272 121.893031,10.2245272 C122.606463,10.2245272 123.153119,10.4957297 123.561374,10.8599976 C123.902455,11.2402522 124.188523,11.737552 124.187944,12.1257999 L124.187944,19.4060188 C124.187944,20.5873201 124.073285,21.6864042 123.843388,22.704413 C123.614071,23.7218508 123.219135,24.6016891 122.658581,25.3427858 C122.098027,26.0838825 121.352166,26.6616867 120.422156,27.0767694 C119.491567,27.4912811 118.32587,27.6985369 116.923906,27.6985369 L116.923906,27.6985369 Z M219.255686,19.5567503 C219.255686,20.939027 219.625142,22.0067087 220.364054,22.7609373 C221.103545,23.514595 222.122734,23.8914238 223.422779,23.8914238 C224.722244,23.8914238 225.742012,23.514595 226.480924,22.7609373 C227.219836,22.0067087 227.589871,20.939027 227.589871,19.5567503 L227.589871,18.9641013 C227.589871,17.4562151 227.219836,16.3125966 226.480924,15.5338171 C225.742012,14.7550375 224.722244,14.3656477 223.422779,14.3656477 C222.122734,14.3656477 221.103545,14.7550375 220.364054,15.5338171 C219.625142,16.3125966 219.255686,17.4562151 219.255686,18.9641013 L219.255686,19.5567503 Z M177.49384,17.7576781 C177.49384,16.501582 177.181714,15.6154633 176.557461,15.1004639 C175.932628,14.5854645 175.047208,14.3279648 173.900041,14.3279648 C173.237569,14.3279648 172.638795,14.4472939 172.103721,14.6859522 C171.568068,14.9246104 171.109433,15.2511954 170.727237,15.6657071 C170.345041,16.0802189 170.045654,16.5518259 169.829077,17.0793862 C169.61192,17.6069466 169.503631,18.1721898 169.503631,18.7756869 L169.503631,20.2727251 C169.503631,21.1776853 169.848186,21.9564649 170.536139,22.6102058 C171.224091,23.2633758 172.078241,23.5899607 173.09743,23.5899607 C173.657984,23.5899607 174.200007,23.4957535 174.722342,23.3073391 C175.244676,23.1189247 175.709681,22.8425836 176.117356,22.4783157 C176.525611,22.1134769 176.856847,21.6550018 177.111645,21.1023195 C177.366442,20.5496372 177.49384,19.9084572 177.49384,19.1799215 L177.49384,17.7576781 L177.49384,17.7576781 Z M139.736945,17.7576781 C139.736945,16.501582 139.424818,15.6154633 138.800565,15.1004639 C138.175732,14.5854645 137.290312,14.3279648 136.143145,14.3279648 C135.480673,14.3279648 134.881899,14.4472939 134.346246,14.6859522 C133.811172,14.9246104 133.352537,15.2511954 132.970341,15.6657071 C132.588145,16.0802189 132.288758,16.5518259 132.071601,17.0793862 C131.855024,17.6069466 131.746735,18.1721898 131.746735,18.7756869 L131.746735,20.2727251 C131.746735,21.1776853 132.090711,21.9564649 132.779243,22.6102058 C133.467195,23.2633758 134.320766,23.5899607 135.340534,23.5899607 C135.901088,23.5899607 136.442532,23.4957535 136.965446,23.3073391 C137.48778,23.1189247 137.952785,22.8425836 138.36046,22.4783157 C138.768715,22.1134769 139.099951,21.6550018 139.354749,21.1023195 C139.609546,20.5496372 139.736945,19.9084572 139.736945,19.1799215 L139.736945,17.7576781 Z M246.864703,21.3763768 L246.861807,21.3689544 L246.862966,21.3763768 L246.864703,21.3763768 Z M251.075227,14.2685857 C249.92864,14.2685857 248.957515,14.6745331 248.27072,15.353396 C247.564237,16.0511003 247.083597,16.9434995 247.083597,18.0968241 L254.854333,18.0968241 L254.806848,17.5218746 C254.610539,16.4467705 254.231238,15.9140716 253.503908,15.2032354 C252.652074,14.4929701 251.790976,14.3005591 251.075227,14.2685857 L251.075227,14.2685857 Z" id="Shape" fill="#4F4B55"></path>
                </g>
            </g>
        </g>
    </g>
</svg>