<?xml version="1.0" encoding="UTF-8"?>
<svg width="25px" height="25px" viewBox="0 0 25 25" version="1.1" xmlns="http://www.w3.org/2000/svg" xmlns:xlink="http://www.w3.org/1999/xlink">
    <!-- Generator: Sketch 50.2 (55047) - http://www.bohemiancoding.com/sketch -->
    <title>ico-insta</title>
    <desc>Created with Sketch.</desc>
    <defs></defs>
    <g id="Symbols" stroke="none" stroke-width="1" fill="none" fill-rule="evenodd">
        <g id="footer-mobile" transform="translate(-87.000000, -201.000000)" fill="#000000" fill-rule="nonzero">
            <g id="ico-insta" transform="translate(87.114754, 201.000000)">
                <path d="M12.1967213,6.00678349 C8.74667891,6.00678349 5.88807236,8.87274325 5.88807236,12.442623 C5.88807236,16.0125026 8.69739259,18.8784624 12.1967213,18.8784624 C15.69605,18.8784624 18.5053703,15.9622227 18.5053703,12.442623 C18.5053703,8.92302325 15.6467637,6.00678349 12.1967213,6.00678349 Z M12.1967213,16.5655826 C9.97883691,16.5655826 8.15524308,14.7052228 8.15524308,12.442623 C8.15524308,10.1800231 9.97883691,8.3196633 12.1967213,8.3196633 C14.4146057,8.3196633 16.2381995,10.1800231 16.2381995,12.442623 C16.2381995,14.7052228 14.4146057,16.5655826 12.1967213,16.5655826 Z" id="Shape"></path>
                <ellipse id="Oval" cx="18.9259469" cy="6.43583946" rx="1.26172979" ry="1.28716789"></ellipse>
                <path d="M22.4262295,2.05704654 C21.147541,0.702406134 19.3278689,0 17.2622951,0 L7.13114754,0 C2.85245902,0 0,2.90996827 0,7.27492068 L0,17.5601534 C0,19.7175436 0.68852459,21.5739027 2.06557377,22.9285431 C3.39344262,24.2330116 5.16393443,24.8852459 7.18032787,24.8852459 L17.2131148,24.8852459 C19.3278689,24.8852459 21.0983607,24.1828398 22.3770492,22.9285431 C23.704918,21.6240746 24.3934426,19.7677155 24.3934426,17.6103252 L24.3934426,7.27492068 C24.3934426,5.16770227 23.704918,3.36151507 22.4262295,2.05704654 Z M22.2295082,17.6103252 C22.2295082,19.1656531 21.6885246,20.4199498 20.8032787,21.2728715 C19.9180328,22.1257932 18.6885246,22.57734 17.2131148,22.57734 L7.18032787,22.57734 C5.70491803,22.57734 4.47540984,22.1257932 3.59016393,21.2728715 C2.70491803,20.3697779 2.26229508,19.1154812 2.26229508,17.5601534 L2.26229508,7.27492068 C2.26229508,5.76976467 2.70491803,4.51546801 3.59016393,3.61237441 C4.42622951,2.75945267 5.70491803,2.30790587 7.18032787,2.30790587 L17.3114754,2.30790587 C18.7868852,2.30790587 20.0163934,2.75945267 20.9016393,3.66254627 C21.7377049,4.56563987 22.2295082,5.81993654 22.2295082,7.27492068 L22.2295082,17.6103252 Z" id="Shape"></path>
            </g>
        </g>
    </g>
</svg>