<?xml version="1.0" encoding="UTF-8"?>
<svg width="14px" height="14px" viewBox="0 0 14 14" version="1.1" xmlns="http://www.w3.org/2000/svg" xmlns:xlink="http://www.w3.org/1999/xlink">
    <!-- Generator: Sketch 51.3 (57544) - http://www.bohemiancoding.com/sketch -->
    <title>ico-call</title>
    <desc>Created with Sketch.</desc>
    <defs></defs>
    <g id="Symbols" stroke="none" stroke-width="1" fill="none" fill-rule="evenodd">
        <g id="footer" transform="translate(-571.000000, -138.000000)" fill="#000000" fill-rule="nonzero">
            <g id="ico-call" transform="translate(571.000000, 138.000000)">
                <path d="M7.728,8.88300086 L8.477,7.38500111 C8.63262882,7.07742263 8.98901625,6.92892789 9.317,7.03500117 L13.517,8.43500094 C13.8048848,8.5288694 13.9997769,8.79719914 14,9.10000082 L14,12.6000002 C14,13.3731988 13.3731986,14 12.6,14 L11.2,14 C8.22957531,14 5.38081149,12.8200036 3.28040405,10.7195965 C1.17999661,8.61918941 3.10862447e-16,5.77042607 0,2.80000188 L0,1.40000212 C0,0.630002247 0.63,2.35277419e-06 1.4,2.35277419e-06 L4.9,2.35277419e-06 C5.20094114,-0.000774478711 5.46869952,0.190884118 5.565,0.476002273 L6.965,4.67600157 C7.07505406,5.00608282 6.92595912,5.36689253 6.615,5.52300142 L5.11,6.2720013 C5.73232456,7.35929271 6.6337084,8.26067641 7.721,8.88300086 L7.728,8.88300086 Z M4.396,1.40000212 L1.4,1.40000212 L1.4,2.80000188 C1.4,8.21239152 5.78760945,12.6000002 11.2,12.6000002 L12.6,12.6000002 L12.6,9.60400074 L9.45,8.55400092 L8.666,10.1360006 C8.49700712,10.4687594 8.09667031,10.6104171 7.756,10.4580006 C5.88623446,9.61512269 4.38798539,8.11936266 3.542,6.2510013 C3.38958351,5.91033105 3.53124115,5.50999431 3.864,5.34100146 L5.446,4.54300159 L4.396,1.40000212 Z" id="Shape"></path>
            </g>
        </g>
    </g>
</svg>