<?xml version="1.0" encoding="UTF-8"?>
<svg width="17px" height="11px" viewBox="0 0 17 11" version="1.1" xmlns="http://www.w3.org/2000/svg" xmlns:xlink="http://www.w3.org/1999/xlink">
    <!-- Generator: Sketch 51.3 (57544) - http://www.bohemiancoding.com/sketch -->
    <title>ico-mail</title>
    <desc>Created with Sketch.</desc>
    <defs></defs>
    <g id="Symbols" stroke="none" stroke-width="1" fill="none" fill-rule="evenodd">
        <g id="footer" transform="translate(-569.000000, -109.000000)" fill="#000000" fill-rule="nonzero" stroke-width="0.5">
            <g id="ico-mail" transform="translate(570.000000, 109.000000)">
                <path d="M13.75,10.3333333 L1.25,10.3333333 C0.560625,10.3333333 0,9.77270833 0,9.08333333 L0,1.58333333 C0,0.893958333 0.560625,0.333333333 1.25,0.333333333 L13.75,0.333333333 C14.439375,0.333333333 15,0.893958333 15,1.58333333 L15,9.08333333 C15,9.77270833 14.439375,10.3333333 13.75,10.3333333 Z M1.25,0.958333333 C0.9053125,0.958333333 0.625,1.23864583 0.625,1.58333333 L0.625,9.08333333 C0.625,9.42802083 0.9053125,9.70833333 1.25,9.70833333 L13.75,9.70833333 C14.0946875,9.70833333 14.375,9.42802083 14.375,9.08333333 L14.375,1.58333333 C14.375,1.23864583 14.0946875,0.958333333 13.75,0.958333333 L1.25,0.958333333 Z" id="Shape" stroke="#000000"></path>
                <path d="M7.75,6 L2.14611455,2.55794848 C1.99789572,2.46667392 1.95541058,2.279273 2.05124172,2.13857069 C2.14707286,1.99786838 2.34480444,1.957841 2.49302326,2.04850908 L7.75,5.27768772 L13.0069767,2.04850908 C13.1551956,1.957841 13.3529271,1.99786838 13.4487583,2.13857069 C13.5445894,2.279273 13.5021043,2.46667392 13.3538855,2.55794848 L7.75,6 Z" id="Shape" stroke="#424242"></path>
                <path d="M2.31864899,7.5 C2.21588696,7.5 2.11471567,7.45125349 2.05363112,7.36094745 C1.95595947,7.21720774 1.99540991,7.0234716 2.14175831,6.92754097 L5.00509663,5.05267513 C5.15144503,4.9567445 5.34901538,4.99549172 5.44636888,5.13923144 C5.54404053,5.28297115 5.50459009,5.47670729 5.35824169,5.57263792 L2.49490337,7.44750376 C2.44049994,7.48281373 2.37909724,7.5 2.31864899,7.5 Z" id="Shape" stroke="#424242"></path>
                <path d="M13.181351,7.5 C13.1209028,7.5 13.0595001,7.48281373 13.0050966,7.44750376 L10.1417583,5.57263792 C9.99540991,5.47670729 9.95595947,5.28297115 10.0536311,5.13923144 C10.1509846,4.99549172 10.3482368,4.9567445 10.4949034,5.05267513 L13.3582417,6.92754097 C13.5045901,7.0234716 13.5440405,7.21720774 13.4463689,7.36094745 C13.3852843,7.45125349 13.284113,7.5 13.181351,7.5 Z" id="Shape" stroke="#424242"></path>
            </g>
        </g>
    </g>
</svg>