<?xml version="1.0" encoding="UTF-8"?>
<svg width="25px" height="25px" viewBox="0 0 25 25" version="1.1" xmlns="http://www.w3.org/2000/svg" xmlns:xlink="http://www.w3.org/1999/xlink">
    <!-- Generator: Sketch 50.2 (55047) - http://www.bohemiancoding.com/sketch -->
    <title>ico-face</title>
    <desc>Created with Sketch.</desc>
    <defs></defs>
    <g id="Symbols" stroke="none" stroke-width="1" fill="none" fill-rule="evenodd">
        <g id="footer-mobile" transform="translate(-46.000000, -201.000000)" fill="#000000" fill-rule="nonzero">
            <path d="M62.0165736,225.885246 L62.0165736,216.526692 L64.9652315,216.526692 L65.702396,212.627294 L62.0165736,212.627294 L62.0165736,211.067535 C62.0165736,209.507776 62.7552124,208.727897 64.228067,208.727897 L65.702396,208.727897 L65.702396,204.828499 C64.9652315,204.828499 64.0511475,204.828499 62.7537381,204.828499 C60.0446586,204.828499 58.3307512,207.075332 58.3307512,210.287656 L58.3307512,212.627294 L55.3820933,212.627294 L55.3820933,216.526692 L58.3307512,216.526692 L58.3307512,225.885246 L47.5245902,225.885246 C46.6830164,225.885246 46,225.188459 46,224.329918 L46,202.555328 C46,201.696787 46.6830164,201 47.5245902,201 L68.8688525,201 C69.7104262,201 70.3934426,201.696787 70.3934426,202.555328 L70.3934426,224.329918 C70.3934426,225.188459 69.7104262,225.885246 68.8688525,225.885246 L62.0165736,225.885246 Z" id="ico-face"></path>
        </g>
    </g>
</svg>