<?xml version="1.0" encoding="UTF-8"?>
<svg width="59px" height="58px" viewBox="0 0 59 58" version="1.1" xmlns="http://www.w3.org/2000/svg" xmlns:xlink="http://www.w3.org/1999/xlink">
    <!-- Generator: Sketch 42 (36781) - http://www.bohemiancoding.com/sketch -->
    <title>instagram</title>
    <desc>Created with Sketch.</desc>
    <defs></defs>
    <g id="Page-1" stroke="none" stroke-width="1" fill="none" fill-rule="evenodd">
        <g id="landau-web" transform="translate(-1013.000000, -935.000000)" fill="#636363">
            <g id="instagram" transform="translate(1013.000000, 935.000000)">
                <g id="Group-4">
                    <path d="M54.3033889,29.1828912 C54.2727915,29.1825268 54.2421027,29.1823446 54.2115966,29.1819802 C54.2115966,26.6746592 54.2603699,24.1659717 54.1974396,21.6601994 C54.1385281,19.3149438 54.0499326,16.9635845 53.8105419,14.6315382 C53.5814722,12.4010674 52.7925151,10.345598 51.2814586,8.61243731 C49.1677698,6.18765212 46.379476,5.1680708 43.2926974,4.97995112 C39.7997493,4.76696139 36.2946536,4.71348621 32.793942,4.67121622 C29.2706705,4.62858183 25.7453896,4.64288439 22.2225748,4.71293961 C19.871322,4.75967346 17.5136756,4.8591537 15.1757578,5.09801558 C12.9394052,5.32658326 10.8785996,6.11349744 9.14075678,7.62064123 C6.70976795,9.72885699 5.68772237,12.5100219 5.49902298,15.5887166 C5.28538897,19.0727112 5.2318663,22.5686398 5.18939524,26.0603779 C5.1467415,29.5745263 5.16098986,33.09077 5.23122695,36.604463 C5.27817346,38.9496275 5.37800329,41.3009868 5.61748528,43.6328509 C5.84646368,45.8634128 6.63560343,47.9188822 8.14656857,49.6522251 C10.2603488,52.0769192 13.0486426,53.097867 16.1354211,53.2843469 C19.6681002,53.4977921 23.2126529,53.5499919 26.7530042,53.5934462 C30.2169075,53.6359895 33.6834596,53.6375381 37.1459929,53.5474411 C39.7520721,53.4797545 42.384182,53.4331117 44.9503475,53.0314557 C49.2752718,52.3547715 52.2215762,49.8619352 53.3959696,45.5759951 C53.7834153,44.1619546 53.9904731,42.6672003 54.0462792,41.2005956 C54.1985356,37.1972449 54.2262103,33.1891571 54.3033889,29.1828912 M0.713077438,29.0734294 C0.821015856,24.7871265 0.855319814,20.4973053 1.0597326,16.2155762 C1.23283972,12.5892999 2.24255776,9.19777992 4.5799889,6.31007553 C7.21345701,3.05664744 10.697822,1.26083676 14.7922507,0.787190268 C17.7443312,0.445742599 20.7349485,0.361040357 23.7106625,0.316886124 C28.374678,0.24766425 33.0413391,0.263408488 37.7054428,0.332454449 C40.6033776,0.375377289 43.5200959,0.366757538 46.3615924,1.0909925 C52.9285516,2.76445549 56.8165393,6.98910078 58.0282891,13.5863764 C58.421506,15.7275048 58.5193913,17.942165 58.5503442,20.1259524 C58.6304162,25.7878971 58.6434676,31.451601 58.5918794,37.1138975 C58.5656002,40.0039767 58.5576636,42.9132305 57.8307548,45.7470174 C56.1568275,52.2730482 51.9340896,56.1443716 45.3482588,57.3634506 C43.1843757,57.7639172 40.9435953,57.8586465 38.7349142,57.8903988 C33.0775831,57.971319 27.4181355,57.9831051 21.7603634,57.9323542 C18.843557,57.906231 15.9069089,57.9020091 13.0477754,57.1698581 C6.50691894,55.4947239 2.60870181,51.2825685 1.41979188,44.7078098 C0.971812175,42.2309508 0.933539893,39.6692137 0.846677686,37.14134 C0.75434801,34.4557599 0.82586603,31.7644627 0.82586603,29.0757163 C0.788211043,29.0751006 0.750732425,29.074221 0.713077438,29.0734294" id="Fill-1"></path>
                    <path d="M29.7619939,19.9664593 C24.6889855,19.9649466 20.5296023,24.0534701 20.5259791,29.0451851 C20.5222717,34.1467421 24.6096131,38.2956072 29.6420085,38.2983806 C34.7506586,38.3010699 38.9033853,34.2189335 38.9054075,29.1922574 C38.907514,24.1018779 34.810567,19.9679721 29.7619939,19.9664593 M42.6263036,29.1212614 C42.6291388,36.2534637 36.8533465,42.0130775 29.7019386,42.0095618 C22.5791894,42.0061224 16.8046998,36.2453623 16.8050829,29.1434258 C16.8054661,22.0081663 22.5801856,16.2495461 29.7293713,16.2552018 C36.8545726,16.2608576 42.623545,22.0161149 42.6263036,29.1212614" id="Fill-2"></path>
                    <path d="M47.646796,14.5264361 C47.6522309,16.3548638 46.1759252,17.838689 44.3455101,17.8443601 C42.5319852,17.8498644 41.0283374,16.3458567 41.0331035,14.5308563 C41.0377023,12.735371 42.5153459,11.2573003 44.3150743,11.2477929 C46.1567774,11.2380353 47.641361,12.6990093 47.646796,14.5264361" id="Fill-3"></path>
                </g>
            </g>
        </g>
    </g>
</svg>