<?xml version="1.0" encoding="UTF-8"?>
<svg width="81px" height="29px" viewBox="0 0 81 29" version="1.1" xmlns="http://www.w3.org/2000/svg" xmlns:xlink="http://www.w3.org/1999/xlink">
    <!-- Generator: Sketch 50.2 (55047) - http://www.bohemiancoding.com/sketch -->
    <title>logo@3x</title>
    <desc>Created with Sketch.</desc>
    <defs>
        <path d="M0.134025221,25.3064272 C0.486164048,11.4001769 12.1781039,0.216210252 26.5297001,0.216210252 C33.9253911,0.216210252 40.6144776,3.18645528 45.4102361,7.96802816 C46.7451059,9.30611258 48.7749458,9.72870535 50.5550309,9.04076364 C52.6880304,8.2144776 55.0141633,7.7593777 57.447334,7.7593777 C67.5275018,7.7593777 75.7523479,15.5641142 76.1006085,25.3064272 C50.3494873,17.9741781 33.5042207,29.9549476 0.134025221,25.3064272 L0.134025221,25.3064272 Z" id="path-1"></path>
        <linearGradient x1="33.233621%" y1="22.6809114%" x2="293.571008%" y2="265.685996%" id="linearGradient-3">
            <stop stop-color="#90522C" offset="0%"></stop>
            <stop stop-color="#000000" offset="100%"></stop>
        </linearGradient>
    </defs>
    <g id="Symbols" stroke="none" stroke-width="1" fill="none" fill-rule="evenodd">
        <g id="header-mobile" transform="translate(-23.000000, -21.000000)">
            <g id="logo" transform="translate(23.000000, 21.000000)">
                <path d="M3.16861827,27.6117975 C3.52173704,13.7041635 15.2462136,2.51908397 29.637748,2.51908397 C37.05402,2.51908397 43.7617211,5.48962456 48.5708255,10.2716732 C49.90941,11.6098908 51.9448986,12.0325256 53.7299374,11.3445154 C55.8688727,10.5181472 58.2014788,10.063002 60.6414206,10.063002 C70.7496399,10.063002 78.9973744,17.8685151 79.3466042,27.6117975 C53.5238218,20.2788189 36.6316776,32.2607805 3.16861827,27.6117975 L3.16861827,27.6117975 Z" id="Shape" fill="#CCDF39"></path>
                <g id="Clipped" transform="translate(3.168618, 2.519084)">
                    <mask id="mask-2" fill="white">
                        <use xlink:href="#path-1"></use>
                    </mask>
                    <g id="Shape"></g>
                    <path d="M9.35401252,28.3832654 L9.35401252,28.3379066 C9.35401252,19.8293528 16.4410003,12.9219644 25.1707855,12.9219644 C33.8997951,12.9219644 40.9875586,19.8293528 40.9875586,28.3379066 L40.9867829,28.3832654 L9.35401252,28.3832654 Z" id="Shape" fill="url(#linearGradient-3)" mask="url(#mask-2)"></path>
                </g>
                <path d="M0.662763466,27.4181853 C0.689890446,26.225622 0.792197915,25.2738795 0.970460928,24.0943959 C1.20607813,22.5302144 1.57500506,20.9860372 2.07181633,19.4834074 C2.44306843,18.3616285 2.88562573,17.2629314 3.39561296,16.196549 C4.15826864,14.6000529 5.0728354,13.07588 6.12148695,11.6494204 C7.02985326,10.4137709 8.03820187,9.25198334 9.13335681,8.17713754 C10.5145076,6.82223171 12.0343936,5.60735589 13.6620124,4.55713075 C14.9400807,3.73233856 16.2848039,3.0091066 17.6791307,2.39820641 C19.8508392,1.44646392 22.1434565,0.766318121 24.4856775,0.381620269 C25.4637989,0.221585963 26.4496709,0.110792981 27.4394181,0.0515495122 C27.8339219,0.0276982453 28.2299759,0.0123103313 28.6260298,0.00461637422 C28.7787159,0.00230818711 28.9314021,0.000769395704 29.0848633,0 L29.2701018,0 C29.6119017,0.00153879141 29.9521516,0.00846335274 30.2931765,0.020773684 C30.7853374,0.0400085766 31.2767233,0.0715538005 31.766559,0.115409356 C33.0926808,0.233896294 34.410277,0.445480112 35.7061716,0.747083228 C37.5508063,1.17640603 39.3512627,1.7903838 41.0726634,2.57593682 C42.3181793,3.14528964 43.5226172,3.80389236 44.6728012,4.54482042 C45.9136668,5.34345316 47.0909777,6.23826037 48.1923331,7.2169317 C48.4946052,7.4854508 48.7906768,7.76012507 49.0805479,8.0409545 C49.1844055,8.14097594 49.286713,8.24176678 49.3890205,8.34409641 C49.4626508,8.417189 49.5355061,8.49182038 49.6099116,8.56568237 C49.6269628,8.58260908 49.6447891,8.59953578 49.6626154,8.61569309 C49.7222948,8.67108958 49.7835243,8.72340849 49.8478539,8.77341921 C49.9548118,8.85497515 50.06797,8.92883714 50.1865537,8.99346638 C50.3733423,9.09502661 50.5733069,9.17427437 50.779472,9.22813207 C51.1073209,9.3127656 51.4522211,9.33430868 51.7878206,9.28814494 C51.9474822,9.26660186 52.1048187,9.23044026 52.2582799,9.17966014 C52.3233847,9.15811706 52.3869393,9.1334964 52.4504939,9.10887574 C52.506298,9.08656326 52.561327,9.06502018 52.6171311,9.0442465 C52.6923116,9.01577886 52.7674921,8.98731122 52.8418975,8.95961297 C53.313907,8.78649894 53.7913418,8.63031161 54.273427,8.49105099 C55.0159312,8.27715898 55.7700613,8.10558374 56.5319419,7.97555587 C58.2246655,7.68626308 59.9545917,7.60778472 61.6674668,7.7370432 C63.0726444,7.84245041 64.4661961,8.09173462 65.8202199,8.47720186 C67.1626179,8.86036092 68.465488,9.37970302 69.7024783,10.0236872 C71.2905693,10.8500182 72.7701523,11.8810085 74.0931738,13.0820352 C75.5371042,14.392316 76.794246,15.9041786 77.8149955,17.5606875 C78.4730186,18.6286088 79.0326094,19.7550041 79.4852425,20.9237162 C79.8223921,21.7931333 80.0983122,22.6864017 80.3130029,23.5935193 C80.6276759,24.9261126 80.8067139,26.8465243 80.8501171,28.2137405 L76.7066646,27.1527438 L76.57413,27.1281231 C76.5640542,26.8734531 76.5454529,27.1488968 76.5237513,26.8949962 C76.4555463,26.1102126 76.3315372,25.3300454 76.150174,24.5629578 C75.9688108,23.7951009 75.7308684,23.0403237 75.4394471,22.3063202 C75.0170413,21.2437848 74.4814772,20.2274131 73.8467059,19.2749012 C73.4258501,18.6447661 72.9608162,18.0446374 72.4578045,17.4775928 C71.1332328,15.9857345 69.534291,14.7339277 67.7625117,13.8060365 C66.8277935,13.3167008 65.8457968,12.9158457 64.834348,12.6134732 C63.8321998,12.3141782 62.8021496,12.1110578 61.7604736,12.0056506 C59.8918122,11.8171486 57.9890483,11.9425601 56.16379,12.3826545 C55.6654286,12.5026802 55.1732677,12.6457878 54.6880823,12.8119773 C54.5229952,12.8681431 54.3586832,12.9273866 54.1951463,12.9897077 C54.0998143,13.0250999 54.0060325,13.0628003 53.9114756,13.0989619 L53.8510212,13.1220437 C53.6898094,13.1812872 53.5262725,13.2359143 53.3611854,13.2836168 C52.9744322,13.3959486 52.5776032,13.474427 52.176899,13.5167437 C51.533602,13.5859893 50.8810044,13.5644463 50.2439079,13.4528839 C49.4843524,13.3197784 48.7480487,13.0589533 48.0752996,12.685027 C47.6683948,12.4580552 47.2855169,12.1903055 46.9328662,11.8871636 C46.8197079,11.7894504 46.7096499,11.6878901 46.6026921,11.5832523 C46.5205361,11.5024658 46.4399302,11.419371 46.3585492,11.3378151 C46.3066204,11.2862656 46.2539166,11.2347161 46.2019878,11.1831666 C45.9206423,10.9084923 45.6338713,10.6399732 45.3401249,10.379148 C44.5875449,9.70977378 43.7923369,9.08656326 42.9614762,8.51567165 C41.8825975,7.7732048 40.7432643,7.11691026 39.5566527,6.55832898 C38.2429318,5.93896544 36.8726318,5.43731944 35.4682292,5.06339313 C34.1304816,4.70716292 32.7617317,4.46634206 31.382906,4.34246935 C30.9659256,4.30553836 30.5481701,4.27860951 30.1296395,4.2624522 C29.8382183,4.25168066 29.547572,4.24552549 29.2569258,4.2447561 C29.204222,4.2439867 29.1515181,4.2439867 29.0988143,4.2447561 C28.6306801,4.24629489 28.163321,4.26014401 27.6959619,4.28861165 C26.8542504,4.33862237 26.0156392,4.43248865 25.1832284,4.56944108 C23.1952083,4.89566486 21.2498163,5.47348104 19.4059567,6.28134653 C17.6644046,7.04458706 16.0150842,8.01248686 14.5013987,9.15811706 C13.0334415,10.2683551 11.6949188,11.5440131 10.5152827,12.9527767 C9.41082707,14.2722903 8.4482068,15.7102909 7.65067358,17.2321556 C6.91204466,18.6432273 6.31447604,20.1266222 5.87114367,21.6554115 C5.55182036,22.7587249 5.31232788,23.8843508 5.15576645,25.0222871 C5.03563268,25.8955512 4.96277736,27.1242761 4.93952567,28.0060036 L0.662763466,27.4181853 L0.662763466,27.4181853 Z" id="Shape" fill="#65993A"></path>
            </g>
        </g>
    </g>
</svg>