<?xml version="1.0" encoding="UTF-8"?>
<svg width="427px" height="131px" viewBox="0 0 427 131" version="1.1" xmlns="http://www.w3.org/2000/svg" xmlns:xlink="http://www.w3.org/1999/xlink">
    <!-- Generator: Sketch 51.3 (57544) - http://www.bohemiancoding.com/sketch -->
    <title>logo-svg</title>
    <desc>Created with Sketch.</desc>
    <defs>
        <path d="M0.267424156,50.2294237 C0.970056301,22.6276239 24.2993007,0.42914459 52.9354297,0.42914459 C67.6922524,0.42914459 81.0391679,6.32463094 90.6082748,15.8153286 C93.2717768,18.4712235 97.3219714,19.3100061 100.873823,17.944546 C105.129855,16.3044934 109.771251,15.4011891 114.626222,15.4011891 C134.739455,15.4011891 151.150713,30.8924085 151.845607,50.2294237 C100.463697,35.6760202 66.8518796,59.4560324 0.267424156,50.2294237 L0.267424156,50.2294237 Z" id="path-1"></path>
        <linearGradient x1="33.233621%" y1="22.6809114%" x2="293.571008%" y2="265.685996%" id="linearGradient-3">
            <stop stop-color="#90522C" offset="0%"></stop>
            <stop stop-color="#000000" offset="100%"></stop>
        </linearGradient>
    </defs>
    <g id="Page-1" stroke="none" stroke-width="1" fill="none" fill-rule="evenodd">
        <g id="home" transform="translate(-507.000000, -254.000000)">
            <g id="logo-svg" transform="translate(507.000000, 254.000000)">
                <path d="M394.815081,113.337005 C395.46781,114.982871 396.486068,116.645486 398.980261,118.737457 C401.105854,120.238682 402.872062,121.374497 406.908231,121.730772 C408.699013,121.777971 409.671195,121.706411 411.632454,121.214631 C413.457024,120.681741 414.764018,119.964625 415.879032,119.239895 C416.808211,118.636969 418.645068,118.066016 420.558716,119.239895 C421.643014,120.024004 423.204956,121.656167 422.269634,124.36629 C421.604618,126.066968 420.019639,126.835851 419.379196,127.280433 C417.757356,128.152849 415.929715,129.375449 413.733474,129.944879 C411.535696,130.51431 409.408568,131 406.908231,131 C403.460286,131 397.046647,130.51431 390.010995,124.064827 C385.621584,119.736244 383.588141,112.654907 383.588141,109.906721 L383.588141,105.899393 C383.588141,102.950232 384.145649,100.170073 385.260664,97.5558701 C386.375678,94.9431902 387.914583,92.6639467 389.874306,90.7211847 C391.834029,88.7769002 394.16696,87.236089 396.870026,86.0972285 C399.574628,84.958368 402.417455,84.5046509 405.662671,84.5046509 C409.516076,84.5046509 412.635353,85.6937552 415.326133,86.9605091 C418.291826,88.3551564 423.095912,92.3396455 425.281403,97.6563578 C426.28123,100.08481 426.94471,101.8403 427,105.366504 C427,108.515118 426.680547,110.153372 425.462631,111.427739 C424.246251,112.700583 422.218952,113.337005 419.379196,113.337005 L394.815081,113.337005 L394.815081,113.337005 Z M363.640741,124.679933 L363.640741,73.2911383 C363.580843,71.9223742 363.992447,70.0526942 365.314799,68.7920305 C366.371452,67.7003687 367.899606,67 369.724176,67 C371.482705,67 372.961712,67.8556679 373.932359,68.9031759 C374.975189,70.0283335 375.503516,71.3879624 375.503516,73.2911383 L375.503516,125.069704 C375.503516,126.275556 374.810855,128.040181 373.932359,128.839515 C373.757274,128.997859 373.572974,129.156203 373.379459,129.308457 C373.004715,129.622101 372.588505,129.890068 372.141577,130.104746 C371.428951,130.462543 370.624174,130.698537 369.724176,130.698537 C369.544483,130.698537 369.367863,130.690924 369.194313,130.677221 C366.543466,130.51431 364.362583,128.620269 363.788181,126.124825 C363.692959,125.760937 363.640741,125.404663 363.640741,125.069704 L363.640741,124.949423 C363.640741,124.903747 363.639205,124.859593 363.639205,124.813917 C363.639205,124.769763 363.640741,124.724087 363.640741,124.679933 L363.640741,124.679933 Z M266.748102,130.698537 L266.241277,130.698537 C264.687014,130.698537 263.403057,130.330082 262.389407,129.593172 C261.375758,128.856263 260.732244,127.951873 260.461937,126.878482 C260.461937,126.878482 260.428149,126.81149 260.360572,126.677507 L260.360572,105.899393 C260.360572,102.006257 259.850675,99.9416914 257.675936,97.7568455 C256.201536,96.2754133 254.269458,95.2568336 251.540282,95.1441656 C247.7007,95.3055549 246.13415,96.7413108 244.794903,98.1085524 C242.810607,100.18073 242.414362,102.213322 242.414362,105.899393 L242.414362,125.974093 C242.414362,127.179945 241.890643,128.270084 240.843205,129.241465 C239.795767,130.212846 238.392015,130.698537 236.635022,130.698537 C234.810452,130.698537 233.34066,130.212846 232.224109,129.241465 C231.109095,128.270084 230.551587,127.179945 230.551587,125.974093 L230.551587,106.301344 C230.551587,103.151207 230.855682,100.220316 231.463872,97.5056263 C232.072062,94.7924587 233.13793,92.4462234 234.658405,90.4699655 C236.17888,88.4921851 238.223073,86.9513739 240.792522,85.8460093 C243.360435,84.7406447 246.605651,84.1879624 250.526632,84.1879624 C254.446079,84.1879624 257.6744,84.9081242 260.208524,86.3484477 C262.744185,87.7887713 264.75459,89.6828119 266.241277,92.0275247 C267.797076,89.6828119 269.824376,87.7887713 272.324712,86.3484477 C274.826584,84.9081242 278.104052,84.1879624 282.160187,84.1879624 C286.081169,84.1879624 289.324848,84.7406447 291.894297,85.8460093 C294.46221,86.9513739 296.491046,88.4921851 297.977732,90.4699655 C299.464419,92.4462234 300.511857,94.7924587 301.120047,97.5056263 C301.729773,100.220316 302.033867,103.151207 302.033867,106.301344 L302.033867,125.974093 C302.033867,127.179945 301.493254,128.270084 300.410492,129.241465 C299.329265,130.212846 297.842579,130.698537 295.950433,130.698537 C294.25948,130.698537 292.891053,130.212846 291.843615,129.241465 C290.796177,128.270084 290.272458,127.179945 290.272458,125.974093 L290.272458,105.899393 C290.384573,101.767218 289.430821,99.6113001 287.587821,97.7568455 C285.663422,95.9465445 283.54858,95.1624361 281.146537,95.1441656 C278.297567,95.1441656 276.078288,96.6514809 274.560885,98.2090401 C272.997407,99.999548 272.197238,101.962103 272.324712,105.899393 L272.324712,126.376044 L272.121982,127.280433 L271.919252,127.583419 C271.851675,127.717402 271.800993,127.834638 271.767204,127.935125 C271.733416,128.035613 271.648945,128.152849 271.513792,128.286832 C271.040755,128.95675 270.398777,129.509433 269.587857,129.944879 C268.776937,130.380326 267.830864,130.631545 266.748102,130.698537 L266.748102,130.698537 Z M216.509465,130.698537 C214.820049,130.698537 213.451621,130.212846 212.402647,129.241465 C211.355209,128.270084 210.83149,127.179945 210.83149,125.974093 L210.83149,124.36629 C210.743947,123.612632 210.439853,123.512145 209.919205,124.064827 C209.311015,124.93572 208.652143,125.739622 207.942588,126.476531 C207.231497,127.213441 206.369895,127.868134 205.356245,128.437564 C204.342595,129.006994 203.143109,129.442441 201.757788,129.743904 C200.370931,130.045367 198.66462,130.196098 196.63732,130.196098 C193.392105,130.196098 190.553885,129.60992 188.11959,128.437564 C185.68683,127.263685 183.691783,125.739622 182.13752,123.863852 C180.583257,121.988081 179.41756,119.842821 178.638892,117.431117 C177.861761,115.01789 177.473195,112.539194 177.473195,109.991983 L177.473195,106.803783 C177.473195,103.988605 177.98002,101.208445 178.995205,98.4602593 C180.008855,95.7135958 181.495542,93.2333769 183.455265,91.0226478 C185.416524,88.8103961 187.883072,87.0183656 190.85798,85.6450339 C193.831353,84.2717022 197.313087,83.5850363 201.30011,83.5850363 C205.018362,83.5850363 208.229789,84.0874747 210.932855,85.0923516 C213.637457,86.0972285 215.850593,87.4873082 217.573797,89.2641132 C219.298538,91.0393957 220.5656,93.1328893 221.37652,95.5461163 C222.18744,97.9578209 222.5929,100.605519 222.5929,103.486166 L222.5929,125.974093 C222.5929,127.179945 222.052287,128.270084 220.97106,129.241465 C219.889834,130.212846 218.401611,130.698537 216.509465,130.698537 L216.509465,130.698537 Z M116.37161,130.698537 C114.682194,130.698537 113.312231,130.212846 112.264793,129.241465 C111.217355,128.270084 110.693635,127.179945 110.693635,125.974093 L110.693635,124.36629 C110.695171,123.420792 109.985616,123.722255 109.781351,124.064827 C109.173161,124.93572 108.514288,125.739622 107.803198,126.476531 C107.093643,127.213441 106.23204,127.868134 105.21839,128.437564 C104.204741,129.006994 103.005255,129.442441 101.618398,129.743904 C100.233076,130.045367 98.5267656,130.196098 96.49793,130.196098 C93.2542505,130.196098 90.4144951,129.60992 87.9817355,128.437564 C85.5489758,127.263685 83.5539286,125.739622 81.9996655,123.863852 C80.4454024,121.988081 79.2781692,119.842821 78.5010377,117.431117 C77.7239061,115.01789 77.3353403,112.539194 77.3353403,109.991983 L77.3353403,106.803783 C77.3353403,103.988605 77.8421653,101.208445 78.8558151,98.4602593 C79.8710008,95.7135958 81.3576873,93.2333769 83.3174103,91.0226478 C85.2786692,88.8103961 87.7452172,87.0183656 90.7185901,85.6450339 C93.6934988,84.2717022 97.1752324,83.5850363 101.162255,83.5850363 C104.880507,83.5850363 108.091934,84.0874747 110.795,85.0923516 C113.498067,86.0972285 115.712738,87.4873082 117.435943,89.2641132 C119.159148,91.0393957 120.427746,93.1328893 121.238666,95.5461163 C122.049585,97.9578209 122.455045,100.605519 122.455045,103.486166 L122.455045,125.974093 C122.455045,127.179945 121.914432,128.270084 120.833206,129.241465 C119.751979,130.212846 118.263757,130.698537 116.37161,130.698537 L116.37161,130.698537 Z M309.627026,107.105246 C309.627026,103.955109 310.083169,100.990722 310.995454,98.2090401 C311.907739,95.4288807 313.29306,92.9821577 315.152954,90.8719163 C317.011312,88.7601523 319.393389,87.1021054 322.300721,85.8962531 C325.206517,84.6904009 328.654463,84.0874747 332.643021,84.0874747 C336.562467,84.0874747 339.976624,84.6904009 342.882421,85.8962531 C345.789753,87.1021054 348.188724,88.7601523 350.082406,90.8719163 C351.974553,92.9821577 353.376768,95.4288807 354.289053,98.2090401 C355.202874,100.990722 355.659016,103.955109 355.659016,107.105246 L355.659016,108.38418 C355.659016,111.400333 355.202874,114.247484 354.289053,116.928678 C353.376768,119.60835 351.974553,121.954585 350.082406,123.964339 C348.188724,125.974093 345.789753,127.566671 342.882421,128.739027 C339.976624,129.911383 336.562467,130.497562 332.643021,130.497562 C328.654463,130.497562 325.206517,129.911383 322.300721,128.739027 C319.393389,127.566671 317.011312,125.974093 315.152954,123.964339 C313.29306,121.954585 311.907739,119.60835 310.995454,116.928678 C310.083169,114.247484 309.627026,111.400333 309.627026,108.38418 L309.627026,107.105246 Z M130.456736,105.49592 C130.456736,102.481289 130.87909,99.6493636 131.723798,97.0031878 C132.570042,94.3554895 133.904681,92.0275247 135.729251,90.0177709 C137.555357,88.0064946 139.886751,86.4321875 142.724971,85.293327 C145.564726,84.1544665 148.978883,83.5850363 152.965906,83.5850363 C156.413851,83.5850363 159.387224,84.0372309 161.889096,84.9416201 C164.389433,85.8460093 166.418268,87.0686095 167.972531,88.6094207 C168.851028,89.4818366 169.324064,90.5704532 169.391641,91.8767931 C169.459218,93.1831331 169.172017,94.3387415 168.530039,95.345141 C167.88806,96.3500178 166.908199,97.0534317 165.588918,97.4553824 C164.271173,97.8573332 162.666228,97.589366 160.774081,96.6514809 C159.758896,96.1155466 158.643881,95.6298561 157.427501,95.1944094 C156.211121,94.7589628 154.724435,94.5412394 152.965906,94.5412394 C149.45192,94.5412394 146.814894,95.5796122 145.057901,97.6563578 C143.300908,99.7331034 142.420876,102.548281 142.420876,106.100369 L142.420876,107.680766 C142.420876,111.232854 143.300908,114.046509 145.057901,116.123254 C146.814894,118.201523 149.45192,119.239895 152.965906,119.239895 C154.724435,119.239895 156.312486,119.055668 157.731596,118.687213 C159.150706,118.318758 160.267257,117.900059 161.078176,117.431117 C162.497286,116.694207 163.831925,116.442988 165.082093,116.677459 C166.333797,116.911931 167.330553,117.447865 168.073896,118.285262 C168.817239,119.12266 169.256488,120.127537 169.391641,121.299893 C169.526794,122.473772 169.155123,123.662876 168.276626,124.868728 C166.99267,126.610515 164.94694,127.935125 162.142509,128.839515 C159.336542,129.743904 156.278698,130.196098 152.965906,130.196098 C148.978883,130.196098 145.564726,129.626668 142.724971,128.487808 C139.886751,127.347425 137.555357,125.773118 135.729251,123.763364 C133.904681,121.752088 132.570042,119.424123 131.723798,116.777947 C130.87909,114.130249 130.456736,111.299845 130.456736,108.283692 L130.456736,105.49592 Z M50.1894902,130.196098 C46.2009316,130.196098 42.9910404,129.509433 40.5582807,128.136101 C38.1239853,126.761247 36.1980505,124.902224 34.7774049,122.557512 C33.2907185,124.902224 31.3141012,126.761247 28.8460174,128.136101 C26.3794695,129.509433 23.2187249,130.196098 19.3668555,130.196098 C15.6486035,130.196098 12.5400773,129.643416 10.0382052,128.538052 C7.5378689,127.431165 5.54282169,125.890353 4.05613524,123.914095 C2.56944879,121.937838 1.52201061,119.591602 0.9138207,116.878435 C0.304094955,114.163744 0,111.232854 0,108.082717 L0,89.2641132 C0.00307166622,88.0004044 0.674230735,86.2235994 1.94897221,85.1365053 C3.06398705,84.1651243 4.23429188,83.6398477 6.06039745,83.6398477 C7.81739052,83.6398477 9.19810449,84.3691448 10.2916177,85.5658618 C11.3390558,86.5387653 11.8627749,88.247056 11.8627749,89.4529083 L11.8627749,108.484668 C11.8627749,112.170739 12.2989515,114.203331 13.840928,116.123254 C15.1479219,117.735625 17.33802,119.239895 20.3805054,119.239895 C23.677939,119.119615 25.6960237,117.560533 26.9139394,116.030379 C28.3668375,114.153087 28.795335,112.170739 28.795335,108.484668 L28.795335,89.2641132 C28.795335,87.6715356 30.0270731,85.6602593 31.077583,84.9416201 C32.0835536,84.0631141 34.25215,83.6139646 34.8603399,83.6398477 C36.1673339,83.6946592 37.5756928,84.0372309 38.918011,85.293327 C39.8272242,86.022624 40.7087924,87.7857262 40.7333657,89.2641132 L40.7610107,108.484668 C40.7610107,112.170739 41.2325115,114.300773 42.7376279,116.123254 C44.0968402,117.694516 46.1333549,119.239895 49.1758403,119.239895 C52.150749,119.239895 54.3208812,117.811752 55.7154177,116.123254 C57.2205341,114.334269 57.6935707,112.170739 57.6935707,108.484668 L57.6935707,88.6687998 C57.948519,87.3243963 58.2111465,86.6849292 59.2862297,85.4151302 C60.3336678,84.4437493 61.6790576,83.5987391 63.3684741,83.5987391 C65.2606204,83.5987391 66.7104469,84.321946 67.7932092,85.293327 C68.6978149,86.3073391 69.4565165,87.6334721 69.4549807,88.6687998 L69.4549807,108.082717 C69.4549807,111.232854 69.1508857,114.163744 68.54116,116.878435 C67.9329701,119.591602 66.8855319,121.937838 65.3988454,123.914095 C63.912159,125.890353 61.9340059,127.431165 59.467458,128.538052 C56.9993742,129.643416 53.9077421,130.196098 50.1894902,130.196098 L50.1894902,130.196098 Z M321.591166,108.484668 C321.591166,112.170739 322.571028,115.01789 324.530751,117.029166 C326.49201,119.03892 329.195076,120.043797 332.643021,120.043797 C336.089431,120.043797 338.794033,119.03892 340.753756,117.029166 C342.713479,115.01789 343.694876,112.170739 343.694876,108.484668 L343.694876,106.90427 C343.694876,102.88324 342.713479,99.8335911 340.753756,97.7568455 C338.794033,95.6800999 336.089431,94.6417271 332.643021,94.6417271 C329.195076,94.6417271 326.49201,95.6800999 324.530751,97.7568455 C322.571028,99.8335911 321.591166,102.88324 321.591166,106.90427 L321.591166,108.484668 Z M210.83149,103.687142 C210.83149,100.337552 210.003676,97.9745688 208.348048,96.6012371 C206.690884,95.2279053 204.342595,94.5412394 201.30011,94.5412394 C199.543117,94.5412394 197.955065,94.8594505 196.535955,95.4958725 C195.11531,96.1322945 193.89893,97.0031878 192.88528,98.1085524 C191.87163,99.213917 191.077605,100.471536 190.503203,101.878363 C189.927266,103.285191 189.640065,104.792506 189.640065,106.401832 L189.640065,110.393934 C189.640065,112.807161 190.553885,114.883906 192.378455,116.627215 C194.203025,118.369002 196.468379,119.239895 199.171445,119.239895 C200.658131,119.239895 202.095671,118.988676 203.480993,118.486238 C204.866314,117.983799 206.099588,117.246889 207.180815,116.275509 C208.263577,115.302605 209.142074,114.080005 209.81784,112.606185 C210.493607,111.132366 210.83149,109.422553 210.83149,107.479791 L210.83149,103.687142 L210.83149,103.687142 Z M110.693635,103.687142 C110.693635,100.337552 109.865821,97.9745688 108.210193,96.6012371 C106.553029,95.2279053 104.204741,94.5412394 101.162255,94.5412394 C99.4052621,94.5412394 97.8172107,94.8594505 96.3965651,95.4958725 C94.9774553,96.1322945 93.7610754,97.0031878 92.7474256,98.1085524 C91.7337757,99.213917 90.93975,100.471536 90.3638126,101.878363 C89.789411,103.285191 89.5022102,104.792506 89.5022102,106.401832 L89.5022102,110.393934 C89.5022102,112.807161 90.4144951,114.883906 92.2406007,116.627215 C94.0651704,118.369002 96.3289884,119.239895 99.0335905,119.239895 C100.520277,119.239895 101.956281,118.988676 103.343138,118.486238 C104.72846,117.983799 105.961734,117.246889 107.04296,116.275509 C108.125723,115.302605 109.004219,114.080005 109.679986,112.606185 C110.355752,111.132366 110.693635,109.422553 110.693635,107.479791 L110.693635,103.687142 Z M394.815081,113.337005 L394.807402,113.317212 L394.810474,113.337005 L394.815081,113.337005 Z M405.982124,94.3828952 C402.941174,94.3828952 400.365582,95.4654217 398.544084,97.2757226 C396.670368,99.1362674 395.395626,101.515999 395.395626,104.591531 L416.004971,104.591531 L415.879032,103.058332 C415.358385,100.191388 414.352414,98.7708576 412.423408,96.8752944 C410.164197,94.9812537 407.880414,94.4681575 405.982124,94.3828952 L405.982124,94.3828952 Z" id="Shape" fill="#4F4B55"></path>
                <path d="M144,54.8052345 C144.704587,27.2006881 168.098753,5 196.814572,5 C211.612461,5 224.996518,10.896073 234.592255,20.387715 C237.263169,23.0438742 241.324634,23.8827402 244.88637,22.5171443 C249.154246,20.8769285 253.808558,19.9735343 258.67704,19.9735343 C278.846244,19.9735343 295.303172,35.4662952 296,54.8052345 C244.475102,40.2503829 210.769749,64.0327613 144,54.8052345 L144,54.8052345 Z" id="Shape" fill="#CCDF39"></path>
                <g id="Clipped" transform="translate(144.000000, 5.000000)">
                    <mask id="mask-2" fill="white">
                        <use xlink:href="#path-1"></use>
                    </mask>
                    <g id="Shape"></g>
                    <path d="M18.6643147,56.3364813 L18.6643147,56.246451 C18.6643147,39.3582609 32.8051735,25.6481416 50.2239506,25.6481416 C67.64118,25.6481416 81.7835865,39.3582609 81.7835865,56.246451 L81.7820388,56.3364813 L18.6643147,56.3364813 Z" id="Shape" fill="url(#linearGradient-3)" mask="url(#mask-2)"></path>
                </g>
                <path d="M139,54.4209436 C139.054127,52.053886 139.258264,50.1648214 139.613957,47.8237251 C140.08409,44.7190619 140.82022,41.6541042 141.811521,38.6716117 C142.552291,36.4450504 143.435337,34.2643032 144.452929,32.1476957 C145.974676,28.9788928 147.799536,25.9536406 149.891939,23.1223343 C151.704427,20.6697573 153.716412,18.3637851 155.901604,16.2303791 C158.657452,13.5410963 161.690122,11.1297518 164.937754,9.04521407 C167.487918,7.40812653 170.171081,5.97262067 172.953219,4.76007636 C177.286488,2.87101173 181.861009,1.52102536 186.534506,0.757458413 C188.486178,0.439814562 190.453315,0.219907281 192.428185,0.102317971 C193.215349,0.0549768203 194.005606,0.0244341424 194.795863,0.00916280338 C195.100522,0.00458140169 195.405181,0.0015271339 195.711386,0 L196.080997,0 C196.763,0.00305426779 197.44191,0.0167984729 198.122366,0.0412326152 C199.104388,0.0794109626 200.084864,0.142023452 201.062246,0.229070085 C203.708293,0.464248705 206.337328,0.884210526 208.923062,1.48284701 C212.603712,2.33498773 216.196211,3.55364058 219.630968,5.11284429 C222.11618,6.24292337 224.519428,7.55014999 226.814421,9.02077993 C229.290354,10.6059449 231.639474,12.3820016 233.837038,14.324516 C234.44017,14.8574857 235.03093,15.4026725 235.609318,15.9600764 C235.816547,16.1586038 236.020684,16.3586583 236.224821,16.5617671 C236.371738,16.7068448 236.517108,16.8549768 236.665571,17.0015817 C236.699594,17.0351786 236.735163,17.0687756 236.770733,17.1008454 C236.889812,17.210799 237.011985,17.3146441 237.140344,17.4139078 C237.35376,17.575784 237.579548,17.7223889 237.816161,17.8506681 C238.188865,18.0522498 238.58786,18.2095446 238.999227,18.316444 C239.653393,18.4844287 240.341581,18.5271884 241.011212,18.4355604 C241.329789,18.3928007 241.643727,18.3210254 241.949932,18.2202345 C242.079838,18.1774748 242.20665,18.1286065 242.333462,18.0797382 C242.44481,18.0354513 242.55461,17.9926916 242.665958,17.951459 C242.815968,17.894955 242.965977,17.838451 243.11444,17.7834742 C244.056254,17.4398691 245.008892,17.1298609 245.97081,16.8534497 C247.452349,16.4289065 248.957085,16.0883556 250.477286,15.83027 C253.854823,15.2560676 257.306592,15.1003 260.724338,15.3568585 C263.528127,15.5660758 266.308718,16.0608672 269.010439,16.8259613 C271.688962,17.586474 274.288614,18.6172893 276.756814,19.8955004 C279.925575,21.5356422 282.877827,23.5820016 285.517688,25.9658576 C288.398801,28.5665667 290.907211,31.5673848 292.94394,34.8553041 C294.256911,36.9749659 295.373478,39.2106899 296.276629,41.5304063 C296.949352,43.2560676 297.499903,45.0290701 297.928281,46.8295609 C298.556157,49.4745569 298.913396,53.2862831 299,56 L290.732457,53.8940824 L290.468007,53.8452141 C290.447903,53.3397328 290.410787,53.8864467 290.367485,53.3824925 C290.231394,51.8248159 289.983955,50.2763022 289.622076,48.7537497 C289.260197,47.22967 288.785424,45.7315517 288.203944,44.2746659 C287.361106,42.165694 286.29248,40.1483501 285.025904,38.2577584 C284.186159,37.0070357 283.258264,35.8158713 282.254591,34.6903736 C279.611637,31.729261 276.421226,29.2446141 272.885946,27.4028906 C271.020878,26.4316335 269.061473,25.6359967 267.043302,25.0358331 C265.043688,24.441778 262.988401,24.0386147 260.909917,23.8293973 C257.181326,23.4552495 253.38469,23.7041723 249.742702,24.5776929 C248.748309,24.8159258 247.766286,25.0999727 246.798183,25.4298337 C246.46878,25.5413144 246.140924,25.6589037 245.814614,25.7826016 C245.624396,25.8528497 245.43727,25.9276793 245.248598,25.9994546 L245.127972,26.0452686 C244.806302,26.1628579 244.479992,26.2712844 244.15059,26.3659667 C243.37889,26.5889283 242.587087,26.7446959 241.787551,26.8286883 C240.503963,26.9661304 239.201817,26.9233706 237.930601,26.7019362 C236.41504,26.437742 234.945873,25.9200436 233.603518,25.1778566 C232.79161,24.7273521 232.027644,24.1959095 231.32399,23.5942187 C231.098202,23.4002727 230.8786,23.198691 230.665185,22.9910008 C230.501257,22.8306518 230.340421,22.6657213 230.17804,22.5038451 C230.074425,22.4015271 229.969263,22.2992092 229.865649,22.1968912 C229.304272,21.6517044 228.73207,21.1187347 228.14595,20.6010363 C226.644307,19.2724298 225.057607,18.0354513 223.399768,16.902318 C221.247052,15.4286338 218.97371,14.1259885 216.606031,13.0172893 C213.984728,11.7879466 211.250532,10.7922552 208.448289,10.0500682 C205.779045,9.34300518 203.047941,8.86501227 200.296733,8.61914371 C199.464721,8.54584129 198.631162,8.4923916 197.796056,8.46032179 C197.214576,8.43894191 196.634641,8.42672484 196.054707,8.42519771 C195.949546,8.42367058 195.844384,8.42367058 195.739223,8.42519771 C194.805142,8.42825198 193.872608,8.45574039 192.940073,8.51224434 C191.260584,8.61150804 189.58728,8.79781838 187.926348,9.06964821 C183.959598,9.71715299 180.077905,10.8640305 176.398801,12.4675211 C172.923835,13.982438 169.632902,15.9035724 166.612604,18.1774748 C163.683549,20.381129 161.012759,22.913117 158.658999,25.7092992 C156.455248,28.3283338 154.534506,31.182547 152.943166,34.2032179 C151.46936,37.0039815 150.277015,39.9482956 149.392422,42.9827107 C148.755268,45.1726207 148.277402,47.4068176 147.965011,49.6654486 C147.725304,51.3987456 147.579934,53.8375784 147.53354,55.5876738 L139,54.4209436 L139,54.4209436 Z" id="Shape" fill="#65993A"></path>
            </g>
        </g>
    </g>
</svg>